#!OML:ASF H:\Not Pregnant\Project 1\Capture day 1\Session 1\non-pregnant.ASF
:FULLY-SPECIFIED
:DEGREES
329
root -5.62495 16.0752 35.6909 93.1175 -84.7364 -80.0616
lowerback -5.49209 0.0307373 -0.07116
upperback -8.25819 -0.240202 0.937974
thorax -5.49115 -0.220418 1.02603
lowerneck 18.1776 -8.91715 -30.6246
upperneck -10.8429 -19.2782 46.1817
head 3.01346 -13.0024 25.0467
rclavicle 7.00716e-015 -9.93923e-015
rhumerus -45.8122 -16.2471 -72.3082
rradius 24.1042
rwrist 4.65626
rhand -17.4384 -19.5525
rfingers 7.12502
rthumb 8.81229 -49.3485
lclavicle 7.00716e-015 -9.93923e-015
lhumerus -48.774 -14.9715 97.5584
lradius 42.6812
lwrist 58.3388
lhand -18.1374 -8.75544
lfingers 7.12502
lthumb 8.1377 21.0679
rfemur -19.4935 -1.14102 23.1372
rtibia 23.5523
rfoot -16.7484 3.07866
rtoes -22.7379
lfemur -23.6235 0.68316 -17.6305
ltibia 26.8368
lfoot -18.2084 -5.5707
ltoes -16.6014
330
root -5.63088 16.0791 35.6697 93.5686 -84.7438 -80.5198
lowerback -5.53837 0.084289 0.0412094
upperback -8.25406 -0.172979 0.883678
thorax -5.46184 -0.195239 0.906864
lowerneck 18.1722 -8.9241 -30.6101
upperneck -10.9684 -19.2518 46.2162
head 2.97526 -12.9943 25.0778
rclavicle -7.8023e-015 2.22639e-014
rhumerus -45.8493 -15.9195 -72.5436
rradius 24.4104
rwrist 4.11459
rhand -16.9528 -19.1987
rfingers 7.12502
rthumb 9.28087 -48.9744
lclavicle -7.8023e-015 2.22639e-014
lhumerus -48.9482 -14.713 97.0261
lradius 42.6353
lwrist 58.0789
lhand -18.9666 -8.76006
lfingers 7.12502
lthumb 7.33741 21.0927
rfemur -19.2983 -1.07602 23.2553
rtibia 23.2537
rfoot -16.7492 2.96832
rtoes -22.3499
lfemur -23.5356 0.628785 -17.5369
ltibia 26.7507
lfoot -18.1707 -5.47249
ltoes -16.6364
331
root -5.63579 16.0832 35.6483 94.0952 -84.7396 -81.0383
lowerback -5.58544 0.131446 0.150553
upperback -8.25462 -0.1142 0.844995
thorax -5.43669 -0.173728 0.805723
lowerneck 18.1481 -8.92544 -30.6047
upperneck -11.0748 -19.2181 46.2451
head 2.94262 -12.9796 25.1074
rclavicle 2.6339e-015 -3.18055e-015
rhumerus -45.8356 -15.4314 -72.8786
rradius 24.7131
rwrist 3.67969
rhand -16.3849 -18.6947
rfingers 7.12502
rthumb 9.82878 -48.4453
lclavicle 2.6339e-015 -3.18055e-015
lhumerus -49.2292 -14.6819 96.7775
lradius 42.6681
lwrist 57.3601
lhand -20.6487 -8.75083
lfingers 7.12502
lthumb 5.71356 21.1521
rfemur -19.142 -1.01803 23.3888
rtibia 22.9841
rfoot -16.7421 2.87159
rtoes -22.0439
lfemur -23.4702 0.59563 -17.4317
ltibia 26.6667
lfoot -18.1283 -5.39497
ltoes -16.6476
332
root -5.63943 16.0876 35.6284 94.6361 -84.7571 -81.538
lowerback -5.64811 0.163002 0.239038
upperback -8.2668 -0.0767976 0.816323
thorax -5.41477 -0.161825 0.726645
lowerneck 18.1026 -8.91403 -30.6181
upperneck -11.1533 -19.1677 46.2589
head 2.91294 -12.9514 25.134
rclavicle -1.59028e-015 -6.36111e-015
rhumerus -45.7752 -14.7753 -73.3056
rradius 25.0193
rwrist 3.32775
rhand -15.7515 -18.0747
rfingers 7.12502
rthumb 10.4399 -47.7955
lclavicle -1.59028e-015 -6.36111e-015
lhumerus -49.5242 -14.6651 96.5936
lradius 42.7045
lwrist 56.5838
lhand -22.3862 -8.70241
lfingers 7.12502
lthumb 4.03582 21.2391
rfemur -19.0458 -1.01055 23.4976
rtibia 22.7419
rfoot -16.7359 2.82476
rtoes -21.8236
lfemur -23.449 0.576127 -17.3593
ltibia 26.5879
lfoot -18.0817 -5.33292
ltoes -16.6675
333
root -5.64349 16.0911 35.6096 95.338 -84.7574 -82.2182
lowerback -5.70487 0.190964 0.349267
upperback -8.27017 -0.0436616 0.80408
thorax -5.38659 -0.152548 0.652444
lowerneck 18.0464 -8.89146 -30.6432
upperneck -11.2123 -19.1015 46.2589
head 2.88136 -12.9112 25.1573
rclavicle 8.94531e-016 1.98785e-015
rhumerus -45.6777 -13.9716 -73.818
rradius 25.3334
rwrist 3.01465
rhand -15.1302 -17.3702
rfingers 7.12502
rthumb 11.0392 -47.0599
lclavicle 8.94531e-016 1.98785e-015
lhumerus -49.8734 -14.7473 96.5737
lradius 42.7769
lwrist 55.5513
lhand -24.5234 -8.52769
lfingers 7.12502
lthumb 1.97184 21.4429
rfemur -18.9457 -1.02005 23.6166
rtibia 22.5244
rfoot -16.7388 2.81997
rtoes -21.6739
lfemur -23.4073 0.528602 -17.2693
ltibia 26.5178
lfoot -18.0344 -5.21452
ltoes -16.742
334
root -5.64694 16.0942 35.5921 96.1984 -84.7597 -83.0537
lowerback -5.76555 0.217202 0.475
upperback -8.27255 -0.0134384 0.791653
thorax -5.355 -0.145634 0.569399
lowerneck 17.9869 -8.86009 -30.6727
upperneck -11.2588 -19.025 46.2556
head 2.84861 -12.8649 25.184
rclavicle 8.44835e-016 7.55382e-015
rhumerus -45.5568 -13.0831 -74.3892
rradius 25.659
rwrist 2.76351
rhand -14.615 -16.6122
rfingers 7.12502
rthumb 11.5361 -46.2748
lclavicle 8.44835e-016 7.55382e-015
lhumerus -49.9581 -14.3206 95.9682
lradius 42.6356
lwrist 55.5461
lhand -24.5991 -8.60333
lfingers 7.12502
lthumb 1.89873 21.368
rfemur -18.8701 -1.0574 23.7253
rtibia 22.3315
rfoot -16.7487 2.87797
rtoes -21.5193
lfemur -23.373 0.479269 -17.1866
ltibia 26.4552
lfoot -17.9871 -5.07295
ltoes -16.8339
335
root -5.64994 16.0973 35.5757 97.1669 -84.7766 -83.9913
lowerback -5.83161 0.249949 0.602136
upperback -8.27503 0.0247072 0.76604
thorax -5.32043 -0.135243 0.472007
lowerneck 17.9387 -8.83018 -30.6844
upperneck -11.3108 -18.9486 46.2554
head 2.80996 -12.8207 25.2097
rclavicle -3.27995e-015 -4.77083e-015
rhumerus -45.425 -12.1147 -75.0325
rradius 26.0067
rwrist 2.49513
rhand -14.1599 -15.8461
rfingers 7.12502
rthumb 11.9749 -45.4836
lclavicle -3.27995e-015 -4.77083e-015
lhumerus -50.0345 -13.9175 95.3805
lradius 42.4727
lwrist 55.4979
lhand -24.6545 -8.67396
lfingers 7.12502
lthumb 1.84521 21.2978
rfemur -18.8147 -1.13957 23.8115
rtibia 22.1522
rfoot -16.7652 3.01338
rtoes -21.3301
lfemur -23.3509 0.439922 -17.1271
ltibia 26.4035
lfoot -17.9442 -4.92687
ltoes -16.9303
336
root -5.65238 16.1001 35.5596 98.3011 -84.7846 -85.0928
lowerback -5.89584 0.288736 0.730893
upperback -8.27801 0.0708936 0.746387
thorax -5.28731 -0.120705 0.380085
lowerneck 17.8958 -8.80083 -30.6885
upperneck -11.3634 -18.8705 46.2508
head 2.76696 -12.7754 25.2301
rclavicle 4.37326e-015 -9.14409e-015
rhumerus -45.2886 -11.1084 -75.6947
rradius 26.3743
rwrist 2.25623
rhand -13.75 -15.0715
rfingers 7.12502
rthumb 12.3702 -44.6855
lclavicle 4.37326e-015 -9.14409e-015
lhumerus -50.0982 -13.5162 94.8166
lradius 42.2835
lwrist 55.4126
lhand -24.68 -8.74361
lfingers 7.12502
lthumb 1.82064 21.2284
rfemur -18.7756 -1.25204 23.9046
rtibia 21.9871
rfoot -16.7897 3.21397
rtoes -21.1217
lfemur -23.3353 0.424159 -17.0628
ltibia 26.3583
lfoot -17.9073 -4.77962
ltoes -17.05
337
root -5.65449 16.103 35.5433 99.6792 -84.7778 -86.4347
lowerback -5.95792 0.344052 0.876597
upperback -8.28262 0.13818 0.714323
thorax -5.25688 -0.0969531 0.26617
lowerneck 17.8549 -8.77777 -30.6656
upperneck -11.4123 -18.7993 46.2537
head 2.72545 -12.7358 25.246
rclavicle 1.09332e-015 7.95139e-015
rhumerus -45.1557 -10.059 -76.4153
rradius 26.7695
rwrist 1.96744
rhand -13.3323 -14.3384
rfingers 7.12502
rthumb 12.7728 -43.9276
lclavicle 1.09332e-015 7.95139e-015
lhumerus -50.1598 -13.1702 94.2751
lradius 42.0676
lwrist 55.2509
lhand -24.7141 -8.81264
lfingers 7.12502
lthumb 1.78767 21.1596
rfemur -18.7472 -1.35418 24.0076
rtibia 21.8272
rfoot -16.8097 3.45092
rtoes -20.8744
lfemur -23.3269 0.429753 -16.9837
ltibia 26.3223
lfoot -17.8754 -4.63057
ltoes -17.1372
338
root -5.65643 16.106 35.5268 101.261 -84.7694 -87.9786
lowerback -6.01786 0.405788 1.0023
upperback -8.28782 0.214538 0.688472
thorax -5.22801 -0.0673018 0.170142
lowerneck 17.8068 -8.75692 -30.6325
upperneck -11.4541 -18.7251 46.2467
head 2.68194 -12.6921 25.2483
rclavicle -4.67144e-015 1.39149e-014
rhumerus -45.0247 -8.9848 -77.1377
rradius 27.1907
rwrist 1.65829
rhand -12.9499 -13.648
rfingers 7.12502
rthumb 13.1415 -43.2139
lclavicle -4.67144e-015 1.39149e-014
lhumerus -50.2118 -12.8418 93.7727
lradius 41.826
lwrist 55.0468
lhand -24.7456 -8.89673
lfingers 7.12502
lthumb 1.75732 21.0758
rfemur -18.7262 -1.48298 24.1094
rtibia 21.6691
rfoot -16.8328 3.74842
rtoes -20.5989
lfemur -23.3224 0.458103 -16.9091
ltibia 26.295
lfoot -17.8518 -4.47941
ltoes -17.2521
339
root -5.65783 16.109 35.5103 102.966 -84.732 -89.6435
lowerback -6.06989 0.471939 1.13195
upperback -8.29525 0.297166 0.680291
thorax -5.20569 -0.0342195 0.0904896
lowerneck 17.7478 -8.73721 -30.6019
upperneck -11.4821 -18.6514 46.2311
head 2.64301 -12.6457 25.2409
rclavicle 1.88845e-015 4.37326e-015
rhumerus -44.8921 -7.83829 -77.8796
rradius 27.6334
rwrist 1.28135
rhand -12.5827 -13.0031
rfingers 7.12502
rthumb 13.4954 -42.5458
lclavicle 1.88845e-015 4.37326e-015
lhumerus -50.2473 -12.5078 93.2978
lradius 41.5569
lwrist 54.8163
lhand -24.745 -8.98056
lfingers 7.12502
lthumb 1.75784 20.9919
rfemur -18.714 -1.61327 24.238
rtibia 21.5138
rfoot -16.8524 4.07197
rtoes -20.3222
lfemur -23.3242 0.497178 -16.8067
ltibia 26.2724
lfoot -17.8271 -4.3268
ltoes -17.3454
340
root -5.65852 16.1121 35.4956 104.787 -84.6982 -91.4116
lowerback -6.12064 0.536945 1.2585
upperback -8.30817 0.377938 0.675055
thorax -5.1897 -0.00200759 0.0157482
lowerneck 17.6765 -8.71669 -30.5793
upperneck -11.4893 -18.5798 46.2088
head 2.61292 -12.598 25.2272
rclavicle -1.88845e-015 -1.19271e-014
rhumerus -44.7553 -6.84105 -78.504
rradius 28.0542
rwrist 1.06726
rhand -12.1682 -12.3772
rfingers 7.12502
rthumb 13.895 -41.893
lclavicle -1.88845e-015 -1.19271e-014
lhumerus -50.2656 -12.1562 92.8332
lradius 41.26
lwrist 54.6121
lhand -24.652 -9.08381
lfingers 7.12502
lthumb 1.8477 20.8879
rfemur -18.7269 -1.79039 24.3553
rtibia 21.3664
rfoot -16.8774 4.46294
rtoes -20.0143
lfemur -23.3386 0.51911 -16.7178
ltibia 26.2477
lfoot -17.7908 -4.15399
ltoes -17.4133
341
root -5.65896 16.1152 35.4812 106.567 -84.677 -93.1456
lowerback -6.15983 0.604561 1.373
upperback -8.32009 0.462511 0.65796
thorax -5.17875 0.0325363 -0.0644595
lowerneck 17.6102 -8.70102 -30.5535
upperneck -11.4913 -18.5212 46.1947
head 2.59086 -12.5591 25.2162
rclavicle -3.47873e-015 1.98785e-014
rhumerus -44.6127 -6.02613 -79.0225
rradius 28.446
rwrist 0.985864
rhand -11.7129 -11.7822
rfingers 7.12502
rthumb 14.3336 -41.2674
lclavicle -3.47873e-015 1.98785e-014
lhumerus -50.2618 -11.8058 92.3604
lradius 40.9344
lwrist 54.4336
lhand -24.4402 -9.19946
lfingers 7.12502
lthumb 2.05223 20.7704
rfemur -18.7416 -2.02169 24.4584
rtibia 21.2256
rfoot -16.911 4.8992
rtoes -19.713
lfemur -23.3465 0.528087 -16.649
ltibia 26.2195
lfoot -17.7457 -3.98042
ltoes -17.4511
342
root -5.65926 16.1182 35.4669 108.338 -84.6641 -94.879
lowerback -6.19004 0.670416 1.48499
upperback -8.33002 0.544787 0.629342
thorax -5.17032 0.0658292 -0.155241
lowerneck 17.5476 -8.68187 -30.5302
upperneck -11.4802 -18.4665 46.1889
head 2.57554 -12.5245 25.2144
rclavicle -2.98177e-016 1.59028e-014
rhumerus -44.4535 -5.42918 -79.4183
rradius 28.7934
rwrist 1.0729
rhand -11.2683 -11.2244
rfingers 7.12502
rthumb 14.762 -40.6787
lclavicle -2.98177e-016 1.59028e-014
lhumerus -50.2438 -11.4525 91.8789
lradius 40.5895
lwrist 54.2722
lhand -24.1508 -9.32485
lfingers 7.12502
lthumb 2.33168 20.6422
rfemur -18.7549 -2.26867 24.5476
rtibia 21.097
rfoot -16.9508 5.34571
rtoes -19.4133
lfemur -23.341 0.531651 -16.5963
ltibia 26.1814
lfoot -17.693 -3.80897
ltoes -17.4742
